<svg xmlns="http://www.w3.org/2000/svg" width="1600" height="900" viewBox="0 0 1600 900" role="img" aria-labelledby="title desc"><title id="title">Decisift — Read. Test. Decide.</title><desc id="desc">Original Decisift artwork. Research preview with illustrative data; no live trading.</desc><rect x="0" y="0" width="1600" height="900" rx="0" fill="#F6F5F0"/><g transform="translate(72 57) scale(0.20703125)"><path fill="#183B35" fill-rule="evenodd" d="M67 43H126C180 43 215 77 215 128S180 213 126 213H67V43ZM101 77V179H126C160 179 181 160 181 128S160 77 126 77H101Z"/><path d="M39 97H128M39 159H108" stroke="#183B35" stroke-width="12" stroke-linecap="round"/><path d="M39 128H145" stroke="#ED7147" stroke-width="13" stroke-linecap="round"/></g><text x="137" y="97.81" fill="#183B35" font-family="Arial, Helvetica, sans-serif" font-size="40.28" font-weight="700" letter-spacing="-0.8">Decisift</text><text x="1488" y="94" fill="#60716A" font-family="Arial, Helvetica, sans-serif" font-size="24" font-weight="400" letter-spacing="0">04</text><path d="M76 147L1524 147" stroke="#CED7CE" stroke-width="1"/><text x="80" y="210" fill="#60716A" font-family="Arial, Helvetica, sans-serif" font-size="17" font-weight="700" letter-spacing="2.5">THE RESEARCH PREVIEW</text><text x="76" y="330" fill="#183B35" font-family="Arial, Helvetica, sans-serif" font-size="88" font-weight="700" letter-spacing="-3">Read.</text><text x="76" y="430" fill="#183B35" font-family="Arial, Helvetica, sans-serif" font-size="88" font-weight="700" letter-spacing="-3">Test. Decide.</text><text x="81" y="511" fill="#20332E" font-family="Arial, Helvetica, sans-serif" font-size="26" font-weight="400" letter-spacing="0">The Decisift research preview is open.</text><text x="81" y="553" fill="#60716A" font-family="Arial, Helvetica, sans-serif" font-size="22" font-weight="400" letter-spacing="0">Explore the workflow. Examine the assumptions.</text><rect x="80" y="628" width="360" height="66" rx="8" fill="#183B35"/><text x="104" y="670" fill="#F6F5F0" font-family="Arial, Helvetica, sans-serif" font-size="21" font-weight="600" letter-spacing="0">Explore the research preview</text><rect x="882" y="219" width="638" height="505" rx="18" fill="#183B35"/><text x="920" y="313" fill="#A9BEB4" font-family="Arial, Helvetica, sans-serif" font-size="19" font-weight="400" letter-spacing="0">01</text><text x="984" y="313" fill="#F6F5F0" font-family="Arial, Helvetica, sans-serif" font-size="39" font-weight="600" letter-spacing="-1">Read</text><text x="984" y="352" fill="#CBD8CF" font-family="Arial, Helvetica, sans-serif" font-size="19" font-weight="400" letter-spacing="0">Gather context and source evidence</text><path d="M920 382L1480 382" stroke="#416056" stroke-width="1"/><text x="920" y="440" fill="#A9BEB4" font-family="Arial, Helvetica, sans-serif" font-size="19" font-weight="400" letter-spacing="0">02</text><text x="984" y="440" fill="#F6F5F0" font-family="Arial, Helvetica, sans-serif" font-size="39" font-weight="600" letter-spacing="-1">Test</text><text x="984" y="479" fill="#CBD8CF" font-family="Arial, Helvetica, sans-serif" font-size="19" font-weight="400" letter-spacing="0">Challenge the thesis and its limits</text><path d="M920 509L1480 509" stroke="#416056" stroke-width="1"/><text x="920" y="567" fill="#A9BEB4" font-family="Arial, Helvetica, sans-serif" font-size="19" font-weight="400" letter-spacing="0">03</text><text x="984" y="567" fill="#F6F5F0" font-family="Arial, Helvetica, sans-serif" font-size="39" font-weight="600" letter-spacing="-1">Decide</text><text x="984" y="606" fill="#CBD8CF" font-family="Arial, Helvetica, sans-serif" font-size="19" font-weight="400" letter-spacing="0">Record the reasoning behind a choice</text><text x="920" y="689" fill="#CBD8CF" font-family="Arial, Helvetica, sans-serif" font-size="15" font-weight="700" letter-spacing="1">ILLUSTRATIVE DATA · NO LIVE TRADING</text><path d="M76 790L1524 790" stroke="#CED7CE" stroke-width="1"/><text x="80" y="844" fill="#183B35" font-family="Arial, Helvetica, sans-serif" font-size="22" font-weight="400" letter-spacing="0">Sift the noise. Decide with clarity.</text><text x="1080" y="844" fill="#60716A" font-family="Arial, Helvetica, sans-serif" font-size="20" font-weight="400" letter-spacing="0">decisift.xyz  /  @decisift</text></svg>
