<svg xmlns="http://www.w3.org/2000/svg" width="2000" height="1119" viewBox="0 0 2000 1119" role="img" aria-labelledby="title desc">
<title id="title">Tikriva market terminal</title><desc id="desc">Angular Tikriva Solana market terminal visual with watchlist, payoff and journal surfaces.</desc>
<rect width="2000" height="1119" fill="#10120f"/>
<rect x="48" y="35" width="52" height="52" rx="6" fill="#d8fa63" stroke="#d8fa63" stroke-width="1"/>
<polygon points="57.620000000000005,44.620000000000005 90.38,44.620000000000005 90.38,49.69 77.12,49.69 77.12,77.38 70.88,77.38 70.88,49.69 57.620000000000005,49.69" fill="#10120f" stroke="#30362e" stroke-width="2"/>
<polygon points="63.86,54.175 85.7,54.175 85.7,59.05 75.56,59.05 84.92,71.53 78.875,71.53 72.44,62.56 66.2,71.53 60.35,71.53 70.49,59.05 63.86,59.05" fill="#75d8a8" stroke="none" stroke-width="1"/>
<polygon points="85.7,54.175 89.21000000000001,58.075 78.29,73.09 74.78,69.775" fill="#d8fa63" stroke="none" stroke-width="1"/>
<polygon points="72.44,62.56 75.56,62.56 82.19,70.75 78.875,71.53" fill="#ff7887" stroke="none" stroke-width="1"/>
<text x="120" y="61" fill="#f1f3ed" font-family="Arial, Helvetica, sans-serif" font-size="22" font-weight="700" text-anchor="start">TIKRIVA</text>
<text x="120" y="84" fill="#a0a79b" font-family="Arial, Helvetica, sans-serif" font-size="12" font-weight="400" text-anchor="start">MARKETS / BOARD</text>
<text x="1944" y="61" fill="#d8fa63" font-family="Arial, Helvetica, sans-serif" font-size="12" font-weight="400" text-anchor="end">TKVA / SOLANA</text>
<polyline points="48,108 1952,108" fill="none" stroke="#30362e" stroke-width="1" stroke-linecap="round" stroke-linejoin="round"/>
<text x="86" y="258" fill="#f1f3ed" font-family="Arial, Helvetica, sans-serif" font-size="76" font-weight="700" text-anchor="start">READ THE</text>
<text x="86" y="344" fill="#d8fa63" font-family="Arial, Helvetica, sans-serif" font-size="92" font-weight="700" text-anchor="start">MOVE.</text>
<text x="90" y="406" fill="#75d8a8" font-family="Arial, Helvetica, sans-serif" font-size="42" font-weight="700" text-anchor="start">Build with intent.</text>
<text x="92" y="454" fill="#a0a79b" font-family="Arial, Helvetica, sans-serif" font-size="22" font-weight="400" text-anchor="start">A consumer crypto workspace for assumptions you can inspect.</text>
<rect x="88" y="522" width="520" height="280" rx="6" fill="#191c18" stroke="#30362e" stroke-width="1"/>
<text x="118" y="562" fill="#a0a79b" font-family="Arial, Helvetica, sans-serif" font-size="14" font-weight="400" text-anchor="start">TKVA / WATCHLIST SAMPLE</text>
<text x="118" y="635" fill="#f1f3ed" font-family="Arial, Helvetica, sans-serif" font-size="62" font-weight="700" text-anchor="start">$1.00</text>
<text x="550" y="635" fill="#75d8a8" font-family="Arial, Helvetica, sans-serif" font-size="24" font-weight="400" text-anchor="end">+5.8%</text>
<polyline points="118,678 556,678" fill="none" stroke="#30362e" stroke-width="1" stroke-linecap="round" stroke-linejoin="round"/>
<text x="118" y="723" fill="#a0a79b" font-family="Arial, Helvetica, sans-serif" font-size="13" font-weight="400" text-anchor="start">REFERENCE / USER ENTERED</text>
<text x="118" y="764" fill="#ff7887" font-family="Arial, Helvetica, sans-serif" font-size="13" font-weight="400" text-anchor="start">PREVIEW ONLY</text>
<rect x="760" y="205" width="1090" height="680" rx="6" fill="#191c18" stroke="#30362e" stroke-width="1"/>
<text x="804" y="258" fill="#75d8a8" font-family="Arial, Helvetica, sans-serif" font-size="16" font-weight="400" text-anchor="start">MARKET BOARD</text>
<text x="1810" y="258" fill="#ff7887" font-family="Arial, Helvetica, sans-serif" font-size="15" font-weight="400" text-anchor="end">NO LIVE FEED</text>
<text x="804" y="310" fill="#a0a79b" font-family="Arial, Helvetica, sans-serif" font-size="13" font-weight="400" text-anchor="start">ASSET</text>
<text x="1205" y="310" fill="#a0a79b" font-family="Arial, Helvetica, sans-serif" font-size="13" font-weight="400" text-anchor="start">REFERENCE</text>
<text x="1470" y="310" fill="#a0a79b" font-family="Arial, Helvetica, sans-serif" font-size="13" font-weight="400" text-anchor="start">MOVE</text>
<text x="1736" y="310" fill="#a0a79b" font-family="Arial, Helvetica, sans-serif" font-size="13" font-weight="400" text-anchor="start">STATE</text>
<polyline points="804,335 1808,335" fill="none" stroke="#30362e" stroke-width="1" stroke-linecap="round" stroke-linejoin="round"/>
<polygon points="804,361 820,345 836,361 820,377" fill="#75d8a8" stroke="none" stroke-width="1"/>
<text x="856" y="365" fill="#f1f3ed" font-family="Arial, Helvetica, sans-serif" font-size="24" font-weight="700" text-anchor="start">SOL</text>
<text x="1205" y="365" fill="#f1f3ed" font-family="Arial, Helvetica, sans-serif" font-size="22" font-weight="400" text-anchor="start">$250.00</text>
<text x="1470" y="365" fill="#75d8a8" font-family="Arial, Helvetica, sans-serif" font-size="21" font-weight="400" text-anchor="start">+8.4%</text>
<text x="1736" y="365" fill="#75d8a8" font-family="Arial, Helvetica, sans-serif" font-size="13" font-weight="400" text-anchor="start">WATCH</text>
<polyline points="804,467 1808,467" fill="none" stroke="#30362e" stroke-width="1" stroke-linecap="round" stroke-linejoin="round"/>
<polygon points="804,493 820,477 836,493 820,509" fill="#d8fa63" stroke="none" stroke-width="1"/>
<text x="856" y="497" fill="#f1f3ed" font-family="Arial, Helvetica, sans-serif" font-size="24" font-weight="700" text-anchor="start">JUP</text>
<text x="1205" y="497" fill="#f1f3ed" font-family="Arial, Helvetica, sans-serif" font-size="22" font-weight="400" text-anchor="start">$0.92</text>
<text x="1470" y="497" fill="#ff7887" font-family="Arial, Helvetica, sans-serif" font-size="21" font-weight="400" text-anchor="start">-2.1%</text>
<text x="1736" y="497" fill="#d8fa63" font-family="Arial, Helvetica, sans-serif" font-size="13" font-weight="400" text-anchor="start">REVIEW</text>
<polyline points="804,599 1808,599" fill="none" stroke="#30362e" stroke-width="1" stroke-linecap="round" stroke-linejoin="round"/>
<polygon points="804,625 820,609 836,625 820,641" fill="#ff7887" stroke="none" stroke-width="1"/>
<text x="856" y="629" fill="#f1f3ed" font-family="Arial, Helvetica, sans-serif" font-size="24" font-weight="700" text-anchor="start">TKVA</text>
<text x="1205" y="629" fill="#f1f3ed" font-family="Arial, Helvetica, sans-serif" font-size="22" font-weight="400" text-anchor="start">$1.00</text>
<text x="1470" y="629" fill="#d8fa63" font-family="Arial, Helvetica, sans-serif" font-size="21" font-weight="400" text-anchor="start">+5.8%</text>
<text x="1736" y="629" fill="#ff7887" font-family="Arial, Helvetica, sans-serif" font-size="13" font-weight="400" text-anchor="start">LOCAL</text>
<text x="804" y="804" fill="#d8fa63" font-family="Arial, Helvetica, sans-serif" font-size="14" font-weight="400" text-anchor="start">WATCHLIST     PAYOFF MAP     JOURNAL</text>
</svg>
